<?xml version="1.0" encoding="UTF-8"?>
<svg xmlns="http://www.w3.org/2000/svg" xmlns:xlink="http://www.w3.org/1999/xlink" width="2112" height="2112" viewBox="0 0 2112 2112">
<rect x="-211.2" y="-211.2" width="2534.4" height="2534.4" fill="rgb(100%, 100%, 100%)" fill-opacity="1"/>
<path fill-rule="nonzero" fill="rgb(0%, 0%, 0%)" fill-opacity="1" d="M 1161.988281 204.96875 C 1186.621094 193.011719 1208.660156 184.25 1228.128906 178.710938 C 1247.621094 173.160156 1270.140625 169.851562 1295.730469 168.878906 C 1326.28125 167.71875 1349.460938 167.960938 1365.371094 169.558594 C 1381.28125 171.140625 1401.191406 175.53125 1425.140625 182.589844 C 1436.289062 200.339844 1447.628906 215.339844 1459.089844 227.578125 C 1464.820312 233.699219 1471 239.671875 1477.53125 245.488281 C 1484.089844 251.289062 1492.039062 257.851562 1501.398438 265.210938 L 1536.300781 291.550781 C 1548.421875 299.359375 1561.730469 304.949219 1576.199219 308.25 L 1599.421875 310.671875 L 1606.03125 310.828125 L 1606.890625 300.871094 C 1607.300781 296.988281 1608.398438 293.25 1610.179688 289.601562 C 1612.980469 283.441406 1619.730469 276.289062 1630.449219 268.179688 L 1637.71875 263.78125 L 1638.078125 273.238281 C 1638.191406 276.308594 1639.121094 279.148438 1640.878906 281.828125 C 1642.640625 284.519531 1645.898438 287.140625 1650.691406 289.71875 L 1657.390625 292.78125 L 1661.460938 290.539062 L 1669.628906 288.148438 C 1671 288.089844 1672.238281 288.230469 1673.351562 288.429688 C 1674.75 288.691406 1676.960938 289.511719 1680.050781 291.089844 L 1683.019531 292.601562 L 1688.671875 288.710938 C 1693.191406 285.230469 1696.128906 282.488281 1697.441406 280.5 C 1698.730469 278.53125 1700.121094 274.898438 1701.570312 269.621094 L 1702.261719 266.28125 L 1706.988281 270.621094 C 1710.140625 273.808594 1712.160156 277.050781 1713.128906 280.308594 L 1714.609375 286.441406 L 1714.488281 294.710938 L 1713.441406 299.320312 C 1726.140625 293.039062 1737.070312 286.71875 1746.171875 280.320312 C 1755.300781 273.910156 1764.761719 265.621094 1774.589844 255.460938 C 1784.390625 245.351562 1792.171875 236.421875 1797.941406 228.761719 C 1803.691406 221.101562 1810.210938 210.710938 1817.390625 197.460938 C 1828.609375 195.378906 1839.191406 194.140625 1849.070312 193.769531 C 1866.390625 193.121094 1882.160156 195.148438 1896.410156 199.839844 C 1903.929688 202 1911.46875 205.03125 1919.058594 208.898438 C 1926.640625 212.710938 1934.808594 217.671875 1943.558594 223.640625 C 1958.851562 233.808594 1972.148438 246.558594 1983.449219 261.789062 L 1977.261719 261.628906 L 1972.28125 261.378906 C 1960.460938 261.839844 1949.460938 266.269531 1939.328125 274.640625 C 1933.949219 278.699219 1929.828125 282.988281 1926.980469 287.511719 C 1924.121094 292.019531 1921.601562 297.871094 1919.421875 305.148438 C 1908.308594 296.46875 1895.371094 292.410156 1880.539062 292.980469 C 1874.46875 293.210938 1868.761719 295.089844 1863.371094 298.578125 C 1858.859375 302.078125 1854.621094 307.03125 1850.71875 313.539062 C 1842.578125 309.441406 1834.511719 307.539062 1826.539062 307.839844 C 1822.429688 308 1818.449219 308.550781 1814.640625 309.519531 C 1810.820312 310.5 1806.601562 312.148438 1802.03125 314.519531 C 1789.070312 321.621094 1778.25 331.160156 1769.628906 343.050781 C 1759.601562 340.140625 1750.738281 338.808594 1743.019531 339.109375 C 1738.910156 339.269531 1734.058594 339.929688 1728.421875 341.101562 C 1722.851562 342.261719 1718.03125 344.339844 1713.980469 347.21875 C 1711.308594 348.96875 1707.441406 352.710938 1702.441406 358.398438 L 1684.738281 381.390625 C 1676.578125 391.339844 1669.710938 398.890625 1664.109375 404.050781 C 1660.910156 406.671875 1656.929688 409.710938 1652.269531 413.191406 C 1647.589844 416.679688 1644.300781 419 1642.410156 420.179688 C 1640.519531 421.351562 1637.769531 422.769531 1634.089844 424.410156 C 1630.449219 426.078125 1625.929688 428.089844 1620.488281 430.5 C 1625.269531 432.828125 1627.71875 436.429688 1627.910156 441.378906 C 1628.019531 444.421875 1627.53125 447.179688 1626.398438 449.710938 C 1625.261719 452.238281 1623.070312 454.949219 1619.871094 457.828125 C 1617.488281 460.910156 1614.011719 462.570312 1609.300781 462.738281 C 1607.121094 462.828125 1605.429688 462.351562 1604.320312 461.289062 C 1609.929688 457.21875 1612.679688 453.539062 1612.558594 450.230469 L 1611.171875 446.160156 L 1609.910156 445.769531 L 1596.058594 440.109375 L 1570.429688 451.121094 L 1565.351562 458.480469 C 1561.421875 463.648438 1558.070312 466.71875 1555.371094 467.671875 L 1548.828125 469.578125 L 1544.308594 469.75 C 1537.71875 470 1531.269531 467.609375 1525.058594 462.640625 C 1522.460938 460.261719 1519.839844 456.671875 1517.179688 451.789062 L 1515.789062 448.121094 L 1512.859375 435.828125 L 1507.660156 439.730469 C 1503.609375 442.410156 1500.058594 443.761719 1497.050781 443.871094 C 1491.570312 444.078125 1487.53125 443.46875 1484.988281 442.058594 C 1482.460938 440.640625 1478.441406 435.769531 1472.871094 427.441406 C 1476.21875 428.96875 1479.308594 430.160156 1482.101562 431.039062 C 1484.871094 431.878906 1487.25 432.398438 1489.179688 432.601562 C 1491.910156 432.5 1493.820312 431.039062 1494.808594 428.261719 L 1495.050781 423.691406 L 1493.128906 416.75 C 1491.28125 411.589844 1487.96875 407.980469 1483.21875 405.960938 L 1483.75 397.679688 C 1483.539062 392.171875 1481.261719 387.179688 1476.960938 382.660156 C 1474.371094 380.269531 1471.148438 378.621094 1467.28125 377.660156 L 1451.109375 376.210938 C 1448.308594 368.050781 1444.550781 361.230469 1439.769531 355.75 C 1435.050781 350.308594 1428.429688 345.539062 1420.039062 341.441406 C 1409.929688 336.601562 1400.46875 334.351562 1391.679688 334.679688 L 1383.449219 335.789062 L 1372.800781 338.269531 C 1366.230469 325.03125 1359.511719 314.980469 1352.679688 308.070312 C 1345.800781 301.171875 1336.019531 294.21875 1323.378906 287.261719 C 1312.121094 281.359375 1301.078125 277.429688 1290.289062 275.480469 C 1279.46875 273.570312 1266.878906 272.871094 1252.601562 273.421875 C 1246.171875 256.320312 1236.109375 241.820312 1222.441406 229.941406 C 1213.339844 222.300781 1204.011719 216.320312 1194.488281 212 C 1190.578125 210.21875 1185.839844 208.738281 1180.289062 207.570312 C 1174.71875 206.421875 1168.640625 205.539062 1161.988281 204.96875 "/>
<path fill-rule="evenodd" fill="rgb(0%, 0%, 0%)" fill-opacity="1" d="M 2016.011719 790.601562 C 1973.238281 796.761719 1904.808594 798.328125 1895.128906 861.710938 C 1837.648438 849.050781 1790.441406 856.929688 1747.320312 896.679688 C 1736.289062 862.53125 1682.25 843.671875 1650.460938 853.640625 C 1631.328125 886 1582.261719 892.621094 1557.859375 853.921875 C 1524 853.949219 1487.820312 891.980469 1473.640625 913.21875 C 1424.179688 850.359375 1361.25 832.769531 1301.128906 886.558594 C 1305.199219 868.089844 1297.25 842.628906 1286.601562 833.429688 C 1239.03125 792.390625 1154.148438 829.71875 1128.828125 830.148438 C 1197.128906 773.441406 1288.640625 744.789062 1365.039062 696.21875 C 1408.910156 739.480469 1466.839844 786.71875 1533.050781 808.988281 C 1538.570312 794.648438 1530.03125 759.910156 1553.578125 740.648438 C 1546.378906 762.289062 1543.550781 778.738281 1560.238281 790.890625 C 1591.019531 813.25 1619.140625 776.820312 1622.660156 745.28125 C 1634.550781 759.011719 1626 781.269531 1625.121094 799.878906 C 1686.449219 799.179688 1751.148438 758.710938 1790.640625 681.589844 C 1860.019531 730.011719 1935.570312 773.898438 2016.011719 790.601562 "/>
<path fill-rule="evenodd" fill="rgb(0%, 0%, 0%)" fill-opacity="1" d="M 1541.339844 1265.984375 C 1552.171875 1314.960938 1597.441406 1306.519531 1602.289062 1268.507812 C 1605.898438 1300.945312 1623.378906 1340.613281 1662.230469 1332.425781 C 1702.648438 1324.484375 1769.441406 1120.941406 1994.601562 1121.394531 C 1957.398438 1128.742188 1877.558594 1174.527344 1926.300781 1275.59375 C 1821.601562 1238.304688 1831.46875 1367.085938 1858.5 1363.515625 C 1793.730469 1343.675781 1749.730469 1362.003906 1736.601562 1447.871094 C 1698.988281 1401.714844 1611.171875 1371.746094 1592.328125 1501.652344 C 1591.839844 1436.773438 1489.660156 1379.257812 1469.039062 1472.796875 C 1449.5 1407.570312 1358.199219 1385.425781 1317.179688 1431.707031 C 1338.140625 1381.949219 1288.921875 1314.097656 1233.929688 1329.308594 C 1258.148438 1277.117188 1212.019531 1203.476562 1150.25 1184.152344 C 1285.910156 1142.023438 1394.738281 1261.394531 1466.289062 1314.859375 C 1531.308594 1363.480469 1527.398438 1321.457031 1541.339844 1265.984375 "/>
<path fill-rule="nonzero" fill="rgb(0%, 0%, 0%)" fill-opacity="1" d="M 1725.839844 1621.742188 C 1734.910156 1706.714844 1683.898438 1757.6875 1640.691406 1785.167969 C 1643.28125 1752.039062 1621.460938 1694.269531 1621.460938 1694.269531 L 1599.078125 1718.058594 C 1591.269531 1713.175781 1582.808594 1710.46875 1573.949219 1710.46875 C 1573.441406 1710.46875 1572.929688 1710.519531 1572.421875 1710.53125 C 1571.910156 1710.519531 1571.398438 1710.46875 1570.890625 1710.46875 C 1562.03125 1710.46875 1553.570312 1713.175781 1545.761719 1718.058594 L 1523.390625 1694.269531 C 1523.390625 1694.269531 1501.558594 1752.039062 1504.148438 1785.167969 C 1460.941406 1757.6875 1409.929688 1706.714844 1419 1621.742188 C 1419 1621.742188 1198.078125 1737.261719 1208.820312 1955.632812 C 1208.820312 1955.632812 1260.980469 1868.285156 1337.691406 1944.363281 C 1337.691406 1944.363281 1368.371094 1859.835938 1437.410156 1903.503906 C 1437.410156 1903.503906 1451.730469 1849.316406 1501.5 1847.5 C 1506.730469 1894.121094 1562.828125 1941.824219 1573.949219 1942.277344 C 1573.949219 1942.277344 1637.289062 1901.421875 1643.339844 1847.5 C 1693.109375 1849.316406 1707.429688 1903.503906 1707.429688 1903.503906 C 1776.46875 1859.835938 1807.148438 1944.363281 1807.148438 1944.363281 C 1883.859375 1868.285156 1936.019531 1955.632812 1936.019531 1955.632812 C 1946.761719 1737.261719 1725.839844 1621.742188 1725.839844 1621.742188 "/>
<path fill-rule="nonzero" fill="rgb(0%, 0%, 0%)" fill-opacity="1" d="M 814.332031 614.089844 L 636.480469 678.171875 C 650.035156 757.089844 570.390625 792.851562 525.003906 806.640625 C 521.722656 793.160156 519.085938 789.789062 515.480469 786.351562 L 521.980469 767.621094 C 504.53125 779.199219 491.863281 779.320312 474.226562 767.621094 L 480.722656 786.351562 C 477.125 789.789062 474.484375 793.160156 471.207031 806.640625 C 425.816406 792.851562 346.175781 757.089844 359.730469 678.171875 L 181.875 614.089844 C 181.875 614.089844 291.238281 728.980469 228.269531 822.878906 C 228.269531 822.878906 468.328125 872.441406 498.097656 981.609375 C 498.101562 981.609375 498.101562 981.609375 498.101562 981.609375 C 527.882812 872.449219 767.9375 822.878906 767.9375 822.878906 C 704.972656 728.980469 814.332031 614.089844 814.332031 614.089844 "/>
<path fill-rule="nonzero" fill="rgb(0%, 0%, 0%)" fill-opacity="1" d="M 738.398438 1171.054688 C 662.730469 1228.15625 563.84375 1251.109375 529.652344 1233.195312 L 519.152344 1175.4375 C 498.101562 1204.160156 493.507812 1196.191406 477.054688 1175.4375 L 466.558594 1233.195312 C 432.371094 1251.109375 333.472656 1228.15625 257.808594 1171.054688 C 257.808594 1171.054688 115.449219 1276.152344 126.992188 1455.125 C 126.992188 1455.125 166.601562 1330.667969 270.085938 1420.121094 C 270.085938 1420.121094 315.691406 1302.601562 413.914062 1390.300781 C 413.914062 1390.300781 485.121094 1371.117188 498.101562 1498.875 C 511.085938 1371.117188 582.296875 1390.300781 582.296875 1390.300781 C 680.519531 1302.601562 726.113281 1420.121094 726.113281 1420.121094 C 829.609375 1330.667969 869.214844 1455.125 869.214844 1455.125 C 880.761719 1276.152344 738.398438 1171.054688 738.398438 1171.054688 "/>
<path fill-rule="nonzero" fill="rgb(0%, 0%, 0%)" fill-opacity="1" d="M 856.558594 354.191406 C 856.558594 255.648438 791.972656 173.519531 706.289062 155 C 712.679688 170.421875 716.316406 187.96875 716.316406 206.601562 C 716.316406 267.921875 677.144531 317.628906 628.835938 317.628906 C 596.613281 317.628906 557.964844 283.191406 536.148438 241.710938 C 536.753906 238.078125 537.082031 234.859375 537.082031 232.328125 C 537.082031 221.46875 531.273438 211.800781 522.253906 205.609375 C 520.117188 196.808594 518.945312 188.03125 518.945312 179.519531 C 498.675781 198.078125 498.675781 198.078125 478.402344 179.519531 C 478.402344 188.03125 477.234375 196.808594 475.097656 205.609375 C 466.078125 211.800781 460.269531 221.46875 460.269531 232.328125 C 460.269531 234.859375 460.597656 238.078125 461.203125 241.710938 C 439.386719 283.191406 400.742188 317.628906 368.515625 317.628906 C 320.210938 317.628906 281.042969 267.921875 281.042969 206.601562 C 281.042969 187.96875 284.671875 170.421875 291.0625 155 C 205.378906 173.519531 140.792969 255.648438 140.792969 354.191406 C 140.792969 396.21875 152.546875 435.269531 172.679688 467.671875 C 170.910156 459.101562 169.960938 450.109375 169.960938 440.828125 C 169.960938 382.5 207.21875 335.21875 253.175781 335.21875 C 292.914062 335.21875 326.121094 370.578125 334.398438 417.839844 C 355.863281 390.230469 385.683594 373.089844 418.660156 373.089844 C 482.675781 373.089844 498.675781 483.921875 498.675781 483.921875 C 498.675781 483.921875 522.144531 373.089844 578.6875 373.089844 C 611.671875 373.089844 641.492188 390.230469 662.953125 417.839844 C 671.230469 370.578125 704.4375 335.21875 744.175781 335.21875 C 790.132812 335.21875 827.390625 382.5 827.390625 440.828125 C 827.390625 450.109375 826.441406 459.101562 824.667969 467.671875 C 844.804688 435.269531 856.558594 396.21875 856.558594 354.191406 "/>
<path fill-rule="nonzero" fill="rgb(0%, 0%, 0%)" fill-opacity="1" d="M 900.21875 1926.96875 C 900.21875 1926.96875 764.371094 1775.785156 694.21875 1931.109375 C 694.21875 1931.109375 542.601562 1822.902344 498.101562 1957 C 457.316406 1822.902344 301.988281 1931.109375 301.988281 1931.109375 C 231.835938 1775.785156 95.988281 1926.96875 95.988281 1926.96875 C 125.652344 1794.425781 269.03125 1688.804688 269.03125 1688.804688 C 338.242188 1784.070312 455.253906 1786.140625 455.253906 1786.140625 C 455.253906 1786.140625 461.960938 1766.488281 464.523438 1760.5625 C 467.960938 1752.621094 479.976562 1732.296875 479.976562 1732.296875 C 479.976562 1732.296875 488.695312 1773.71875 498.101562 1773.71875 C 507.507812 1773.71875 516.230469 1732.296875 516.230469 1732.296875 C 516.230469 1732.296875 528.253906 1752.621094 531.679688 1760.5625 C 534.238281 1766.488281 540.949219 1786.140625 540.949219 1786.140625 C 540.949219 1786.140625 657.960938 1784.070312 727.171875 1688.804688 C 727.171875 1688.804688 870.554688 1794.425781 900.21875 1926.96875 "/>
</svg>
